<svg id="Layer_1" data-name="Layer 1" xmlns="http://www.w3.org/2000/svg" viewBox="0 0 588.22 294.55"><defs><style>.cls-1{fill:#d56827;}.cls-2{fill:#2d1d14;}.cls-3{fill:#d46927;}.cls-4{fill:#606060;stroke:#2d1d14;stroke-miterlimit:10;stroke-width:6.62px;}</style></defs><circle class="cls-1" cx="293.52" cy="110.05" r="64.74"/><path class="cls-2" d="M714.78,730.84l19.72-48.7h.29l19.72,48.7h-3.68l-17.21-43.55,2.35-1.17-18,44.72Zm9.42-18.39h20.74l.89,2.94H723.61Z" transform="translate(-714.78 -438.65)"/><path class="cls-2" d="M804.38,732,767.6,690.53l.89-.74v41.05H765.4V683.17h.14L802.32,725l-.88.29V684.06h3.09l-.15,48Z" transform="translate(-714.78 -438.65)"/><path class="cls-2" d="M858.38,732,821.6,690.53l.88-.74v41.05h-3.24V683.17h.15L856.17,725l-.88.29V684.06h3.24l-.15,48Z" transform="translate(-714.78 -438.65)"/><path class="cls-2" d="M869.27,730.84,889,682.14h.3L909,730.84h-3.68L888.1,687.29l2.35-1.17-18,44.72Zm9.56-18.39h20.75l.88,2.94H878.1Z" transform="translate(-714.78 -438.65)"/><path class="cls-2" d="M936.21,730.84c.88-1.32,2.21-2.94,3.38-4.71s2.51-3.53,4-5.59,2.79-4,4.26-6,2.95-4.12,4.42-6.33,2.94-4.26,4.41-6.17,2.8-4.12,4.27-5.89,2.65-3.68,4-5.44,2.35-3.09,3.38-4.42l.59.74H942.68a11.08,11.08,0,0,1-2.2-.3,3.65,3.65,0,0,1-1.62-1,3.36,3.36,0,0,1-.59-2.06v-2.06h3.09v.74a1.71,1.71,0,0,0,.44,1.18c.3.29.88.29,1.62.29h30L941.51,727.9l-.3-.59h33.84v3.09H936.21Z" transform="translate(-714.78 -438.65)"/><path class="cls-2" d="M989.18,715.1a13.1,13.1,0,0,0,1.62,7.06,11.31,11.31,0,0,0,4.56,4.56,14.65,14.65,0,0,0,6.62,1.62,13,13,0,0,0,6.62-1.62,11.37,11.37,0,0,0,4.56-4.56,14.62,14.62,0,0,0,1.62-7.06V684.2h3.09v31.19a15.67,15.67,0,0,1-8,14.28,19,19,0,0,1-16.48,0,15,15,0,0,1-5.73-5.6,17.59,17.59,0,0,1-2.21-8.68V684.2h3.24v30.9Z" transform="translate(-714.78 -438.65)"/><path class="cls-2" d="M1043.47,684.2a21.91,21.91,0,0,1,5.29.74,12.8,12.8,0,0,1,4.71,2.35,12,12,0,0,1,3.53,4.12,13.21,13.21,0,0,1,1.33,5.89,19.9,19.9,0,0,1-.74,5.15,16.24,16.24,0,0,1-2.5,4.41,9.79,9.79,0,0,1-4.56,3.09,16.4,16.4,0,0,1-7.06,1.18h-7.36V730.7h-3.24V684.06h10.6Zm-.44,24a15.77,15.77,0,0,0,5.88-.88,12.62,12.62,0,0,0,3.68-2.5,10.33,10.33,0,0,0,1.91-3.53,10.19,10.19,0,0,0,.59-3.68,12.37,12.37,0,0,0-.74-4,8,8,0,0,0-2.2-3.24,11.47,11.47,0,0,0-3.53-2.35,10,10,0,0,0-4.56-.74h-7.8v20.89Zm6.62,1.33,12.94,21.19h-3.82l-13.1-21.19Z" transform="translate(-714.78 -438.65)"/><path class="cls-2" d="M1070.24,730.84l19.72-48.7h.29l19.72,48.7h-3.68l-17.07-43.55,2.36-1.17-17.95,44.72Zm9.57-18.39h20.74l.89,2.94h-22.37Z" transform="translate(-714.78 -438.65)"/><path class="cls-2" d="M1116.59,684.35h3.68l15.45,42.23-.74-.15,9.71-26.34,1.47,4.27L1135,733.2Zm21.48,0h3.24l16,42.23-.88-.3,15.6-41.93h3.38l-18.83,48.55Z" transform="translate(-714.78 -438.65)"/><path class="cls-2" d="M1209.43,689.5a49.53,49.53,0,0,0-5-1.91,19.49,19.49,0,0,0-5.88-.74,11.76,11.76,0,0,0-7.36,2.21,6.84,6.84,0,0,0-2.65,5.88,6.42,6.42,0,0,0,1.62,4.27,13.28,13.28,0,0,0,4.12,2.94c1.77.74,3.53,1.62,5.45,2.36,1.47.59,3.09,1.17,4.56,1.91a38.58,38.58,0,0,1,4.12,2.5,12.75,12.75,0,0,1,2.94,3.83,12.08,12.08,0,0,1,1,5.59,13,13,0,0,1-1.91,6.91,11.9,11.9,0,0,1-5.15,4.56,17,17,0,0,1-7.65,1.62,29.87,29.87,0,0,1-6.33-.73,21.52,21.52,0,0,1-5-2.06,32.2,32.2,0,0,1-3.39-1.92l1.48-2.65c.88.74,2.2,1.33,3.53,2.21a27.08,27.08,0,0,0,4.41,1.77,18.58,18.58,0,0,0,4.86.73,17.9,17.9,0,0,0,5.59-1,11.12,11.12,0,0,0,4.41-3.38,8.91,8.91,0,0,0,1.77-5.74,8.27,8.27,0,0,0-1.62-5.44,13.18,13.18,0,0,0-4.12-3.39c-1.77-.73-3.53-1.62-5.45-2.35l-4.41-1.77a16.2,16.2,0,0,1-4.12-2.35,12,12,0,0,1-2.94-3.24,10.22,10.22,0,0,1-1-4.56,8.9,8.9,0,0,1,1.76-5.74,13.26,13.26,0,0,1,4.56-4,14.56,14.56,0,0,1,6.63-1.47,33.24,33.24,0,0,1,6.62.74,27.8,27.8,0,0,1,5.88,2.2Z" transform="translate(-714.78 -438.65)"/><path class="cls-2" d="M1227.52,705.24l-.14,2.36.14-.59,23.1-22.81h4.27l-19.27,19.13,21.48,27.51H1253l-19.87-25.45-5.59,5.44V731h-3.23V684.35h3.23v20.89Z" transform="translate(-714.78 -438.65)"/><path class="cls-2" d="M1263.28,730.84l19.71-48.7h.29l19.72,48.7h-3.68l-17.06-43.55,2.35-1.17-18.1,44.72Zm9.56-18.39h20.74l1,2.94H1272.1Z" transform="translate(-714.78 -438.65)"/><path class="cls-2" d="M979.76,595.19h57.38A16.76,16.76,0,0,1,1053.91,612h0a16.77,16.77,0,0,1-16.77,16.78H979.76A16.64,16.64,0,0,1,963,612.11V612h0A16.76,16.76,0,0,1,979.76,595.19Z" transform="translate(-714.78 -438.65)"/><path class="cls-2" d="M979.61,628.59h57.53a16.76,16.76,0,0,1,16.77,16.77h0a16.76,16.76,0,0,1-16.77,16.77H979.61a16.76,16.76,0,0,1-16.77-16.77h0A16.76,16.76,0,0,1,979.61,628.59Z" transform="translate(-714.78 -438.65)"/><path class="cls-3" d="M940,458.8a5.38,5.38,0,0,0-7.65,0l-.15.15a5.42,5.42,0,0,0,0,7.8h0l18.54,18.54a5.42,5.42,0,0,0,7.79,0h0a5.42,5.42,0,0,0,0-7.8h0Z" transform="translate(-714.78 -438.65)"/><path class="cls-3" d="M1084.37,458.8a5.43,5.43,0,0,0-7.8,0h0L1058,477.34a5.43,5.43,0,0,0,0,7.8h0a5.42,5.42,0,0,0,7.8,0h0l18.54-18.54a5.37,5.37,0,0,0,.15-7.65c-.15,0-.15,0-.15-.15Z" transform="translate(-714.78 -438.65)"/><path class="cls-3" d="M1010.22,438.65h0a5.55,5.55,0,0,1,5.59,5.44v26.19a5.56,5.56,0,0,1-5.45,5.59h-.14a5.55,5.55,0,0,1-5.59-5.44V444.24a5.59,5.59,0,0,1,5.59-5.59Z" transform="translate(-714.78 -438.65)"/><path class="cls-3" d="M1123.21,526.63a5.55,5.55,0,0,0-5.44-5.59h-26.34a5.55,5.55,0,0,0-5.59,5.44v.15h0a5.55,5.55,0,0,0,5.44,5.59h26.19A5.93,5.93,0,0,0,1123.21,526.63Z" transform="translate(-714.78 -438.65)"/><path class="cls-3" d="M930.62,526.63a5.55,5.55,0,0,0-5.44-5.59H898.84a5.55,5.55,0,0,0-5.59,5.44v.15h0a5.55,5.55,0,0,0,5.44,5.59h26.19a5.62,5.62,0,0,0,5.74-5.59Z" transform="translate(-714.78 -438.65)"/><polygon class="cls-4" points="48.85 223.49 534.51 223.49 534.51 223.49 48.85 223.49"/><circle class="cls-3" cx="48.85" cy="223.49" r="7.8"/><circle class="cls-3" cx="534.51" cy="223.49" r="7.8"/></svg>